# xmcd
# 
# Track frame offsets:
#     150
#     19072
#     36762
#     55170
#     72927
#     93884
#     103712
#     123672
#     140625
#     154757
#     172618
#     184882
# 
# Disc length: 2657
# 
# Revision: 8
# Processed by: cddbd v1.5.2PL0 Copyright (c) Steve Scherf et al.
# Submitted via: fre:ac v1.0.27
# 
DISCID=9c0a5f0c
DTITLE=Spanic Boys - Sunshine
DYEAR=2006
DGENRE=Rockabilly
TTITLE0=Honey
TTITLE1=What Will You Do
TTITLE2=Secret
TTITLE3=I Hear You Talking
TTITLE4=Sunshine
TTITLE5=Bigger Fool Than Me
TTITLE6=Hold Me
TTITLE7=Broken Wheel
TTITLE8=All The World
TTITLE9=Didn't Love You Anyway
TTITLE10=When The Night Has Come
TTITLE11=You Don't Worry Me
EXTD=YEAR: 2006
EXTT0=
EXTT1=
EXTT2=
EXTT3=
EXTT4=
EXTT5=
EXTT6=
EXTT7=
EXTT8=
EXTT9=
EXTT10=
EXTT11=
PLAYORDER=
